<?xml version="1.0" encoding="UTF-8"?><svg id="Capa_2" xmlns="http://www.w3.org/2000/svg" viewBox="0 0 510.73 664.06"><defs><style>.cls-1{fill:#f2b64a;}</style></defs><g id="Capa_4"><g><path d="M261.11,1.85l-5.74-1.85-5.74,1.85L16.26,76.94,0,82.17l3.71,16.67c.17,.77,17.23,78.52,17.23,158.11,0,50.51-3.2,94.54-5.77,129.92-1.59,21.94-2.85,39.27-2.85,51.93,0,31.5,3,69.04,38.82,115.99,23.38,30.66,66.02,57.51,123.29,77.65,5.41,1.9,11.96,4.01,18.9,6.24,18.29,5.89,41.06,13.22,52.63,19.92l9.4,5.45,9.4-5.45c11.57-6.71,34.34-14.04,52.64-19.92,6.94-2.23,13.49-4.34,18.9-6.24,57.27-20.15,99.91-47,123.29-77.65,35.82-46.96,38.82-84.49,38.82-115.99,0-12.65-1.26-29.99-2.85-51.93-2.57-35.38-5.77-79.4-5.77-129.92,0-79.58,17.06-157.33,17.23-158.11l3.7-16.67-16.25-5.23L261.11,1.85Z"/><g><path class="cls-1" d="M264.51,203.8v.33s.06,70.71,.06,70.71c0,0,72.76,1.47,110.96,5.74h.08s0-70.03,0-70.03l-27.18-2.46h-.15s27.25-36.22,27.25-36.22l.08-.11v-58.4l-51.89,64.43-59.16-102.35v.47s-.06,77.16-.06,77.16l30.32,51.56h-.28s-30.04-.84-30.04-.84Z"/><polygon class="cls-1" points="168.58 347.63 168.61 347.68 188.74 385.53 201.43 390.34 227.02 350.3 227.1 350.17 227.1 339.04 198.36 345.65 175.7 329.73 168.58 347.63"/><path class="cls-1" d="M189.13,294.37l-7.02,18.21h.04s34.87-.98,34.87-.98l32.62,16.1,1.96,59.07c10.23,0,12.45-5.18,12.86-6.57v-.02c.07-.21,.09-.33,.09-.33,0,0,13.75,5.95,19.36,4.58,5.61-1.35,8.31-10.01,8.31-10.01l16.35,19.05v32.41l-.08-.08-29.32-28.56-24.31,11.6-24.19-11.6-29.47,28.71v35.58l15.76-17.86,37.9-15.84,38.02,15.84,15.76,17.86,24.55-31.05,.02-.03,10.44-51.28-22.53,6.31-.11,.03,20.03-37.66,.12-.23-7.12-17.9-22.65,15.92-28.73-6.61v11.13l-.08,.08-6.63,6.61-15.72-28.93-.12-.23,32.62-16.1,34.7,.98h.21s-7.02-18.2-7.02-18.2c0,0-33.03-4.07-65.79-4.07s-65.7,4.07-65.7,4.07Z"/><polygon class="cls-1" points="288.69 326.95 288.69 329.34 303.06 333.02 311.76 325.81 311.98 325.63 309.81 323.22 288.69 326.64 288.69 326.95"/><path class="cls-1" d="M134.7,210.58v70.04c37.7-4.22,109.18-5.71,110.96-5.75h.08s.06-71.05,.06-71.05l-30.19,.84h-.11s30.22-51.4,30.22-51.4l.08-.14-.06-77.63-59.14,102.35-51.91-64.45v58.42l27.36,36.3-.31,.03-27.05,2.45Z"/><polygon class="cls-1" points="123.48 360.45 109.84 425.43 254.91 570.5 400.76 424.66 400.89 424.53 386.77 360.36 386.78 361.14 387.83 417.41 387.74 417.49 304.76 500.46 304.76 485.81 286.53 459.95 254.85 447.1 223.3 459.95 205.07 485.81 205.07 486.02 205.07 500.46 204.98 500.38 121.77 417.16 123.57 360.03 123.48 360.45"/><polygon class="cls-1" points="221.05 329.36 221.13 329.34 221.13 326.64 200.01 323.22 197.84 325.63 197.96 325.73 206.77 333.02 221.05 329.36"/><polygon class="cls-1" points="353.68 118.76 354.05 118.29 316.83 135.67 316.96 135.89 326.59 152.43 353.68 118.76"/><polygon class="cls-1" points="193.32 135.98 193.49 135.69 156.29 118.32 156.76 118.9 183.73 152.45 193.32 135.98"/></g></g></g></svg>