<?xml version="1.0" encoding="UTF-8"?><svg id="Capa_2" xmlns="http://www.w3.org/2000/svg" viewBox="0 0 624.89 251.78"><defs><style>.cls-1{fill:#2a0a49;}</style></defs><g id="Capa_5"><g><g><path class="cls-1" d="M226.49,170.44v-59.73h19.19v44.45h30.65v15.28h-49.83Z"/><path class="cls-1" d="M284.66,170.44v-59.73h51.66v14.33h-32.47v8.25h27.78v13.72h-27.78v9.12h33.08v14.32h-52.26Z"/><path class="cls-1" d="M341.53,170.44l21.79-59.73h22.31l21.79,59.73h-20.32l-2.52-8.42h-20.92l-2.52,8.42h-19.62Zm26.13-21.79h13.02l-2.86-9.55c-.23-.69-.49-1.53-.78-2.52-.29-.98-.58-2.03-.87-3.13-.29-1.1-.58-2.18-.87-3.26-.29-1.07-.55-2.01-.78-2.82h-.69c-.23,1.04-.54,2.23-.91,3.56-.38,1.33-.77,2.71-1.17,4.12-.41,1.42-.81,2.76-1.22,4.04l-2.86,9.55Z"/><path class="cls-1" d="M440.15,171.48c-9.96,0-17.41-2.6-22.36-7.81-4.95-5.21-7.42-12.91-7.42-23.09,0-6.83,1.27-12.53,3.82-17.1,2.55-4.57,6.25-8.02,11.11-10.33,4.86-2.31,10.74-3.47,17.62-3.47,4.17,0,8.09,.48,11.76,1.43,3.68,.95,6.92,2.37,9.72,4.25,2.81,1.88,4.99,4.24,6.55,7.08,1.56,2.84,2.34,6.14,2.34,9.9h-18.32c0-1.27-.3-2.43-.91-3.47-.61-1.04-1.43-1.92-2.47-2.65-1.04-.72-2.24-1.27-3.6-1.65-1.36-.38-2.79-.56-4.3-.56-2.26,0-4.25,.3-5.99,.91-1.74,.61-3.17,1.52-4.3,2.73-1.13,1.22-1.98,2.66-2.56,4.34-.58,1.68-.87,3.62-.87,5.82v5.56c0,2.89,.51,5.37,1.52,7.42,1.01,2.06,2.55,3.63,4.6,4.73,2.05,1.1,4.59,1.65,7.6,1.65,2.02,0,3.89-.3,5.6-.91,1.71-.61,3.08-1.49,4.12-2.65,1.04-1.16,1.56-2.49,1.56-3.99v-.35h-13.54v-12.15h31.86v33.34h-9.9l-1.91-5.9c-1.79,1.51-3.76,2.78-5.9,3.82-2.14,1.04-4.49,1.82-7.03,2.34-2.55,.52-5.35,.78-8.42,.78Z"/><path class="cls-1" d="M512.06,171.48c-6.25,0-11.59-.94-16.02-2.82s-7.83-4.69-10.2-8.42c-2.37-3.73-3.56-8.35-3.56-13.85v-35.68h19.19v35.42c0,3.18,.87,5.82,2.61,7.9,1.74,2.08,4.37,3.13,7.9,3.13s6.18-1.04,7.94-3.13c1.77-2.08,2.65-4.72,2.65-7.9v-35.42h19.19v35.68c0,5.5-1.17,10.11-3.52,13.85-2.34,3.73-5.73,6.54-10.16,8.42-4.43,1.88-9.77,2.82-16.02,2.82Z"/><path class="cls-1" d="M551.93,170.44v-59.73h51.66v14.33h-32.47v8.25h27.78v13.72h-27.78v9.12h33.08v14.32h-52.26Z"/></g><g><path class="cls-1" d="M267.08,104.77l-9.3-10.69c-.23,.06-.51,.1-.83,.13-.32,.03-.62,.04-.91,.04-6.14,0-11.42-1.2-15.82-3.61-4.4-2.4-7.79-5.91-10.17-10.52-2.38-4.61-3.56-10.15-3.56-16.64,0-6.84,1.27-12.54,3.82-17.12,2.55-4.58,6.23-8.02,11.04-10.34,4.81-2.32,10.6-3.48,17.38-3.48s12.66,1.16,17.47,3.48c4.81,2.32,8.49,5.77,11.04,10.34,2.55,4.58,3.82,10.29,3.82,17.12s-1.28,12.46-3.82,17.04c-2.55,4.58-6.2,8.05-10.95,10.43l13.65,13.82h-22.86Zm-8.34-24.68c2.09,0,3.93-.33,5.52-1,1.59-.67,2.92-1.61,4-2.82,1.07-1.22,1.87-2.68,2.39-4.39,.52-1.71,.78-3.58,.78-5.61v-5.56c0-2.03-.26-3.9-.78-5.61-.52-1.71-1.32-3.17-2.39-4.39-1.07-1.22-2.41-2.16-4-2.82-1.59-.67-3.43-1-5.52-1s-3.93,.33-5.52,1c-1.59,.67-2.91,1.61-3.95,2.82-1.04,1.22-1.83,2.68-2.35,4.39-.52,1.71-.78,3.58-.78,5.61v5.56c0,2.03,.26,3.9,.78,5.61,.52,1.71,1.3,3.17,2.35,4.39s2.36,2.16,3.95,2.82c1.59,.67,3.43,1,5.52,1Z"/><path class="cls-1" d="M331.22,94.42c-6.26,0-11.6-.94-16.03-2.82-4.43-1.88-7.84-4.69-10.21-8.43-2.38-3.74-3.56-8.36-3.56-13.86V33.59h19.21v35.46c0,3.19,.87,5.82,2.61,7.91,1.74,2.09,4.37,3.13,7.91,3.13s6.18-1.04,7.95-3.13c1.77-2.09,2.65-4.72,2.65-7.91V33.59h19.21v35.72c0,5.51-1.17,10.13-3.52,13.86-2.35,3.74-5.74,6.55-10.17,8.43-4.43,1.88-9.78,2.82-16.03,2.82Z"/><path class="cls-1" d="M374.07,93.38V33.59h51.71v14.34h-32.51v8.26h27.81v13.73h-27.81v9.13h33.11v14.34h-52.32Z"/><path class="cls-1" d="M436.82,93.38V33.59h51.71v14.34h-32.51v8.26h27.81v13.73h-27.81v9.13h33.11v14.34h-52.32Z"/><path class="cls-1" d="M499.31,93.38V33.59h16.34l18.6,21.47c.52,.58,1.22,1.42,2.09,2.52,.87,1.1,1.75,2.22,2.65,3.35,.9,1.13,1.58,2.04,2.04,2.74l.44-.17c-.06-1.62-.09-3.23-.09-4.82v-25.07h17.47v59.79h-16.25l-20.95-23.9c-.99-1.16-1.83-2.22-2.52-3.17-.69-.96-1.36-1.87-2-2.74l-.44,.17c.06,1.1,.09,2.2,.09,3.3v26.33h-17.47Z"/><path class="cls-1" d="M598.56,94.42c-4.11,0-7.95-.3-11.52-.91-3.56-.61-6.69-1.65-9.39-3.13-2.69-1.48-4.81-3.53-6.34-6.17-1.54-2.64-2.3-5.95-2.3-9.95v-.48c0-.2,.03-.42,.09-.65h18.16c-.06,.23-.09,.45-.09,.65v.56c0,1.74,.4,3.07,1.22,4,.81,.93,1.96,1.55,3.43,1.87,1.48,.32,3.14,.48,5,.48,.7,0,1.43-.01,2.22-.04,.78-.03,1.53-.12,2.26-.26,.72-.14,1.39-.36,2-.65,.61-.29,1.09-.68,1.43-1.17,.35-.49,.52-1.11,.52-1.87,0-1.1-.49-1.97-1.48-2.61-.99-.64-2.32-1.19-4-1.65-1.68-.46-3.56-.9-5.65-1.3-2.09-.4-4.26-.88-6.52-1.43-2.26-.55-4.43-1.26-6.52-2.13-2.09-.87-3.97-1.98-5.65-3.35-1.68-1.36-3.01-3.07-4-5.13-.99-2.06-1.48-4.53-1.48-7.43,0-3.48,.72-6.43,2.17-8.86,1.45-2.43,3.43-4.4,5.95-5.91,2.52-1.51,5.39-2.61,8.6-3.3,3.22-.7,6.59-1.04,10.13-1.04s6.97,.36,10.13,1.09c3.16,.73,5.95,1.84,8.39,3.35,2.43,1.51,4.35,3.42,5.74,5.74,1.39,2.32,2.11,5.07,2.17,8.26v1.04h-17.99v-.35c0-1.04-.26-2.03-.78-2.95-.52-.93-1.35-1.68-2.48-2.26-1.13-.58-2.62-.87-4.48-.87-1.74,0-3.2,.17-4.39,.52-1.19,.35-2.07,.83-2.65,1.43-.58,.61-.87,1.26-.87,1.96,0,1.1,.49,2,1.48,2.69,.98,.69,2.32,1.27,4,1.74,1.68,.46,3.56,.9,5.65,1.3,2.09,.41,4.26,.86,6.52,1.35,2.26,.49,4.43,1.15,6.52,1.96,2.09,.81,3.97,1.87,5.65,3.17,1.68,1.3,3.01,2.91,4,4.82,.98,1.91,1.48,4.26,1.48,7.04,0,4.93-1.15,8.92-3.43,11.99-2.29,3.07-5.42,5.32-9.39,6.74-3.97,1.42-8.47,2.13-13.51,2.13Z"/></g><g><path class="cls-1" d="M454.66,186.42c-15.84,0-26.34,10.69-26.34,25s10.5,25,26.34,25,26.34-10.69,26.34-25-10.5-25-26.34-25Zm0,47.81c-10.5,0-17.65-7.63-17.65-22.81s7.16-22.81,17.65-22.81,17.65,7.63,17.65,22.81-7.16,22.81-17.65,22.81Z"/><path class="cls-1" d="M315.72,189l2.58,1.72c1.72,1.15,1.72,1.81,.57,3.63l-1.15,1.81c-1.43,2.29-4.49,7.06-6.11,9.83l-1.43,2.39c-1.15,1.91-2.1,3.53-2.1,3.53,0,0-.86-1.62-1.43-2.48l-.67-1.05c-2.67-4.2-6.3-9.54-9.45-13.84l-1.34-1.81c-.57-.76-.29-1.34,.19-1.81l2.1-1.91v-.48h-15.46v.48l2.86,2c1.05,.76,1.91,1.62,2.67,2.67l1.24,1.62c2.1,2.67,8.11,10.88,11.64,16.51l1.15,1.81c.48,.76,.57,1.53,.57,2.48v13.74c0,.76-.19,1.15-.86,1.62l-3.44,2.48v.38h15.65v-.38l-3.44-2.48c-.67-.48-.86-.86-.86-1.62v-13.46c0-1.15,.38-2,.95-2.96l1.43-2.39c3.34-5.53,6.3-10.12,9.45-14.89l1.15-1.72c1.34-2,2.29-2.77,3.82-3.82l2.39-1.62v-.48h-12.69v.48Z"/><path class="cls-1" d="M252.92,186.42c-15.84,0-26.34,10.69-26.34,25s10.5,25,26.34,25,26.34-10.69,26.34-25-10.5-25-26.34-25Zm0,47.52c-10.21,0-17.65-7.35-17.65-22.52s7.44-22.52,17.65-22.52,17.65,7.35,17.65,22.52-7.44,22.52-17.65,22.52Z"/><path class="cls-1" d="M351.98,208.65l-5.06-3.15c-3.91-2.48-6.78-4.96-6.78-8.97,0-4.39,3.15-7.35,7.63-7.35s7.44,2.29,9.73,6.01l1.53,2.48h.57v-8.59s-4.2-2.29-10.59-2.29c-8.59,0-14.31,5.63-14.31,12.41,0,4.96,2.19,9.73,8.97,13.93l5.06,3.15c3.91,2.39,7.25,4.87,7.25,9.54,0,5.25-3.44,7.92-8.3,7.92s-8.4-1.81-11.45-6.78l-2.1-3.53h-.57v10.02s5.15,2.67,12.12,2.67c9.45,0,15.84-5.44,15.84-13.55,0-5.73-2.96-9.83-9.54-13.93Z"/><path class="cls-1" d="M403.61,188.9l3.44,2.48c.67,.48,.86,.86,.86,1.62v16.32h-24.53v-16.32c0-.76,.19-1.15,.86-1.62l3.44-2.48v-.38h-15.65v.38l3.44,2.48c.67,.48,.86,.86,.86,1.62v36.84c0,.76-.19,1.15-.86,1.62l-3.44,2.48v.38h15.65v-.38l-3.44-2.48c-.67-.48-.86-.86-.86-1.62v-17.75h24.53v17.75c0,.76-.19,1.15-.86,1.62l-3.44,2.48v.38h15.65v-.38l-3.44-2.48c-.67-.48-.86-.86-.86-1.62v-36.84c0-.76,.19-1.15,.86-1.62l3.44-2.48v-.38h-15.65v.38Z"/></g><path class="cls-1" d="M207.33,185.61h-.02c.88-3.46,1.35-7.08,1.35-10.82,0-13.53-6.13-25.64-15.79-33.75,6.32,6.51,10.35,15.25,10.78,24.94,0,0,0,0,0,0,.02,.48,.03,.95,.04,1.43,0,.09,0,.19,0,.28,0,0,0,0,0,.01,0,.59-.02,1.18-.04,1.76,0,.1,0,.21-.01,.31-.03,.55-.07,1.09-.12,1.64-.01,.14-.03,.27-.04,.41-.06,.53-.12,1.05-.2,1.57-.02,.14-.05,.28-.07,.42-.07,.42-.14,.84-.22,1.26-.04,.19-.08,.39-.12,.58-.09,.41-.18,.82-.28,1.22-.05,.22-.11,.44-.17,.66-.11,.41-.22,.81-.34,1.21-.08,.26-.16,.52-.24,.77-.07,.23-.15,.45-.23,.67-.15,.43-.31,.86-.47,1.29-.06,.16-.13,.32-.19,.48-.21,.52-.43,1.03-.66,1.54-.04,.09-.08,.19-.13,.28-.14,.31-.29,.61-.44,.92-.28-.07-.59-.11-.91-.11-1.58,.02-2.94,.59-3.87,1.49-.38,.37-8.34,8.87-8.34,8.87l-6.69,4.59-.51-.74,2.87-4.21,6.74-12.78c-2.98-1.32-6.07,.08-7.53,1.66-1.46,1.57-7.53,10.19-7.53,10.19l-8.18,6.11-3.05,2.28-1.01-.79,2.48-6.6,4.6-12.23c-3.03-.56-5.73,.39-7.24,2.19-.1,.12-.21,.27-.33,.43-1.71,2.46-5.29,10.02-5.29,10.02l-6.99,7.07c-.31-.15-.61-.3-.91-.46-.16-.08-.32-.16-.48-.24-.37-.2-.74-.4-1.1-.61-.15-.09-.31-.18-.46-.27-.36-.22-.72-.44-1.08-.67-.15-.09-.29-.18-.44-.28-.36-.24-.71-.48-1.06-.73-.13-.09-.27-.19-.4-.28-.35-.26-.7-.52-1.05-.79-.12-.09-.24-.19-.36-.28-.35-.28-.69-.57-1.03-.86-.11-.09-.21-.18-.32-.28-.34-.3-.68-.61-1.02-.93-.09-.09-.18-.17-.27-.26-.34-.33-.68-.66-1-1-.08-.08-.15-.16-.23-.24-.34-.35-.66-.71-.99-1.08-.06-.07-.12-.14-.18-.21-.33-.38-.65-.77-.97-1.16-.05-.06-.09-.12-.14-.18-.32-.41-.64-.83-.95-1.25-.03-.04-.06-.09-.09-.13-.32-.44-.63-.89-.93-1.34-.02-.02-.03-.05-.05-.07-.31-.48-.61-.96-.9-1.45-.22-.38-.45-.76-.66-1.14-.05-.08-.09-.17-.13-.25-.22-.41-.43-.82-.63-1.23-.07-.15-.14-.3-.22-.45-.19-.41-.38-.82-.56-1.24-.04-.1-.09-.19-.13-.29-.21-.51-.41-1.02-.6-1.53-.05-.14-.1-.28-.15-.41-.14-.4-.28-.81-.41-1.22-.05-.15-.1-.3-.14-.45-.16-.53-.32-1.07-.46-1.61-.01-.05-.03-.11-.04-.16-.13-.49-.24-.99-.34-1.49-.03-.16-.07-.32-.1-.49-.09-.45-.17-.9-.24-1.35-.02-.12-.04-.24-.06-.37-.08-.56-.16-1.13-.22-1.69,0-.08-.01-.15-.02-.23-.05-.52-.09-1.04-.12-1.57,0-.14-.02-.29-.02-.43-.03-.6-.05-1.2-.05-1.8,0,0,0,0,0,0,0,0,0,0,0,0,0-.59,.02-1.17,.04-1.75,0-.16,.02-.32,.03-.48,0-.12,.02-.23,.03-.35,.02-.34,.05-.68,.08-1.01,.01-.13,.02-.26,.04-.4,.02-.21,.05-.42,.08-.62,.05-.38,.09-.75,.14-1.13,.04-.27,.09-.54,.14-.81,.05-.29,.1-.59,.16-.88,.03-.13,.05-.26,.08-.39,.04-.2,.09-.41,.14-.61,.06-.27,.12-.54,.19-.81,.02-.08,.04-.17,.06-.25,.07-.26,.14-.51,.21-.77,.09-.31,.17-.62,.26-.93,0-.02,0-.03,.01-.05,.09-.28,.18-.55,.27-.82,.08-.25,.16-.5,.25-.75,.04-.11,.08-.23,.12-.34,.08-.22,.17-.44,.25-.67,.1-.25,.19-.5,.29-.74,.02-.05,.04-.1,.06-.15,.11-.27,.24-.54,.36-.82,.1-.21,.19-.43,.29-.64,.05-.1,.1-.21,.15-.31,.12-.24,.24-.48,.36-.72,.1-.2,.2-.4,.31-.6,.06-.12,.13-.24,.19-.36,.12-.22,.24-.44,.37-.66,.12-.22,.25-.44,.38-.65,.02-.03,.04-.07,.06-.1,.16-.27,.33-.55,.51-.82,.03-.04,.05-.08,.08-.12,.18-.28,.36-.56,.54-.83,.13-.19,.26-.38,.39-.57,.1-.14,.2-.28,.29-.41,.1-.14,.2-.28,.31-.42,.15-.2,.3-.4,.45-.6,.17-.22,.34-.44,.52-.66,.15-.19,.31-.37,.47-.56,.33-.39,.66-.77,1.01-1.15,.13-.14,.26-.28,.39-.42,.06-.06,.11-.12,.17-.18,.17-.18,.35-.36,.52-.54,.14-.15,.29-.29,.44-.43,.23-.22,.45-.44,.68-.66,.12-.11,.25-.22,.37-.33,.46-.42,.93-.83,1.41-1.22,.12-.1,.24-.2,.36-.3,.26-.21,.52-.41,.79-.61,.14-.11,.28-.21,.43-.32,.27-.2,.54-.4,.82-.59,.1-.07,.21-.14,.32-.22,.55-.38,1.11-.74,1.69-1.09,.12-.08,.24-.15,.37-.23,.29-.17,.58-.34,.87-.5,.16-.09,.31-.17,.47-.26,.29-.16,.58-.31,.88-.47,0,0,.01,0,.02,0,.13-.06,.26-.13,.39-.19,.29-.14,.58-.29,.88-.43,0,0,0,0,0,0,.06-.03,.12-.05,.18-.08,.45-.21,.91-.41,1.37-.59,.1-.04,.19-.08,.29-.11,.47-.19,.95-.37,1.43-.54,.09-.03,.18-.06,.27-.09,.49-.17,.99-.33,1.49-.48,.08-.03,.17-.05,.26-.07,.51-.15,1.02-.29,1.53-.42,.08-.02,.16-.04,.24-.06,.52-.13,1.05-.24,1.58-.35,.07-.01,.15-.03,.22-.04,.54-.1,1.09-.2,1.64-.28,.06,0,.12-.01,.18-.02,.56-.08,1.13-.15,1.7-.2,.04,0,.08,0,.12,0,.6-.05,1.2-.1,1.8-.13,.58-.03,1.15-.04,1.74-.04,6.27,0,12.18,1.52,17.4,4.19-.7-11.13-1.29-23.89-1.29-37.7,0-33.45,7.15-65.57,7.15-65.57L94.36,0,0,30.36S7.15,62.48,7.15,95.93c0,27.21-2.31,50.4-3.17,64.94,11.3-6.22,22.49-5.14,22.49-5.14,0,0,8.1,3.69,11.58,20.75-3.27-1.15-6.22-1.82-9-2.11-3.4-.17-7.86,.08-13.58,1.23-2.16,.55-4.36,1.23-6.66,1.96-1.68,.53-3.25,1.13-4.7,1.76,1.02,9.71,4.23,20.04,13.7,32.45,12.72,16.67,38.37,26.04,46.34,28.85,7.97,2.8,22.91,6.94,30.21,11.17,7.3-4.23,22.24-8.37,30.21-11.17,6.59-2.32,25.29-9.14,38.75-20.86,10.67-1.06,20.27-5.76,27.5-12.82,4.61-3.8,9.29-8.51,9.29-8.51l9.77-11.7-2.54-1.1Zm-73.42-66.76s-.39,20.77-26.33,32.03c0,0,19.99-25.54,22.35-72.74l10.37,47.85s-2.74-1.57-6.39-7.14Zm-38.42,58.04c-8.53,0-17.16-7.47-23.67-20.5-1.22-2.43-2.44-4.56-3.63-6.4,.99,1.16,2.03,2.44,3.1,3.83,6.64,8.65,18.52,13.43,24.2,13.43s17.56-4.78,24.2-13.43c1.07-1.4,2.11-2.67,3.1-3.83-1.19,1.84-2.41,3.97-3.63,6.4-6.51,13.03-15.14,20.5-23.67,20.5Zm21.98,17.53c-1.72,.75-2.7,1.14-2.7,1.14-13.32,2.88-25.81-10.85-25.81-10.85,12.62,2.36,18.42,.57,24.44-3.22,.7,4.57,2.1,8.92,4.07,12.94Zm-44.57-115.82c-2.6,1.33-4.47,.79-4.47,.79l3.97-6.25,5.23,4.26s-2.14-.13-4.73,1.2Zm8.47,3.16l1.6,1.53-1.78,.47-4.35-.34-1.83-1.28,1.9-1.17,4.46,.79Zm3.94,4.05l2.07,3.95-4.29,5.67c-1.84,2.29-2.05,2.51-3.24,2.26-1.34-.28-4.1-1.31-4.1-1.31l-7.57-7.57-.19-5.89c8.68,4.51,15.6,3.58,17.31,2.89Zm-7.14,24.75c1.35-1.74,6.69-6.84,10.32-9.08l5.61,2.7,5.88-2.49s.05,0,.07,0l6.48,.98-5.04-4.96s-.13,.97-1.29,1.64c-.79,.47-.9,.33-1.17,.18-.28-.15-2.3-1.3-2.3-1.3,0,0-2.15,1.49-2.78,1.49-.16,0-.48-.03-.78-.23l.03-4.97v-9.93c0-.83-.2-1.78-.8-2.42,0,0-3.47-4.46-4-5.17,0,0-4.44-.99-5.38-1.21-.94-.23-2.01-.98-2.01-.98l-4.87-3.46s5.96-.23,12.7-.35l5.54,6.16,5.54-6.16c3.58,.06,8.98,.17,12.81,.35l-4.87,3.46s-1.07,.75-2.01,.98c-.94,.23-5.37,1.29-5.37,1.29-.57,1.1-2.81,5.63-2.81,5.63l4.84-1.3c0,.07-1.4,3.74-1.55,3.97,.05-.02,.63-.21,2.25,.44,1.71,.69,8.64,1.62,17.31-2.89l-.67,5.71-9.03,13.73,5.13-1.3c-.1,1.48-.51,7.94-.56,8.69-.06,.85-.25,2.06-1.22,3.53-1.09,1.67-3.75,4.79-7.62,8.95-3.93,4.24-9.12,7.04-11.89,7.04s-8.16-4.07-12.06-7.38c-1.77-1.5-3.16-2.76-4.15-3.7-1.15-1.08-1.63-2.24-1.63-3.81s.38-2.55,1.35-3.81Zm32.93-33.17l5.23-4.26,3.97,6.25s-1.87,.54-4.47-.79c-2.59-1.33-4.73-1.2-4.73-1.2Zm2.62,4.74l-1.83,1.28-4.35,.34-1.78-.47,1.6-1.53,4.46-.79,1.9,1.17Zm18.25-62.74v14.89c-1.93-2.97-4.42-5.37-7.27-6.96l7.27-7.93Zm-25.43-.34c5.5,0,10.29,2.56,12.79,6.34-.91-.16-1.84-.24-2.78-.24-1.78,0-3.52,.28-5.2,.84l-6.29-6.87c.49-.04,.98-.07,1.48-.07Zm-24.35,0c.5,0,1,.03,1.48,.07l-6.29,6.87c-1.68-.56-3.42-.84-5.2-.84-.94,0-1.87,.09-2.78,.24,2.5-3.78,7.29-6.34,12.79-6.34Zm-25.43,.34l7.27,7.93c-2.85,1.59-5.34,3.99-7.27,6.96v-14.89Zm0,40.04l1.49-1.53c-.96-2.59-1.49-5.49-1.49-8.55,0-10.99,6.9-19.9,15.42-19.9,2.24,0,4.36,.62,6.28,1.73l15.9-17.35,15.9,17.34c1.92-1.11,4.04-1.73,6.28-1.73,8.52,0,15.42,8.91,15.42,19.9,0,3.06-.54,5.96-1.49,8.55l1.49,1.53v11.85l-5.99-6.19c-2.61,2.6-5.88,4.16-9.43,4.16-5.19,0-9.78-3.31-12.57-8.38l-3.7,4.04-5.91,6.44-5.87-6.4-3.74-4.08c-2.8,5.07-7.38,8.38-12.57,8.38-3.55,0-6.82-1.55-9.43-4.16l-5.99,6.19v-11.85Zm-6.5,60.32l8.36-40.21s-.74,30.67,15.92,47.04c24.63,24.2,23.15,32.59,23.15,32.59-4.87-7.67-15.48-12.24-23.89-17.4-8.4-5.16-14.52-17.4-14.52-17.4,.52,11.5,10.54,21.68,10.54,21.68-20.13-11.71-21.11-18.93-19.57-26.29Zm-37.82,18.93l21.76-7.16c12.72,0,20.73,9.69,29.95,31.76,9.16,21.93,23.58,33.83,30.5,37.03,0,0-31.52,3.43-47.21-26.48-6.35-12.11-6.1-34.77-34.99-35.15Zm108.09,90.43c-1.94,.68-4.46,1.49-7.14,2.36-6.31,2.03-13.22,4.26-19.03,6.76-5.81-2.5-12.73-4.73-19.03-6.76-2.68-.86-5.2-1.67-7.14-2.36-11.14-3.92-31.25-12.35-40.71-24.75-1.81-2.38-3.34-4.64-4.64-6.81,6.39,5.38,24.81,15.9,71.35,15.9,14.97,0,27.04-1.1,36.77-2.77,4.19,3.16,8.94,5.63,14.08,7.22-8.64,5.17-18.07,8.95-24.51,11.21Zm-36.78-118.93h0l6.9-2.83,3.82,.94,3.82-.94,6.71,2.93h0s-.04,1.55-.98,2.34c0,0-3.71-1.83-9.5-.68-2.35-.47-4.36-.44-5.94-.25h0c-.87,.69-.33,2.14,1.33,3.23,1.67,1.08,6.92,1.45,11.22,.23,0,0-2.5,3.38-6.26,3.38-5.18,0-11.33-5.32-11.14-8.36Zm24.36-60.83c0-5.9,3.87-10.88,8.45-10.88s8.45,4.98,8.45,10.88c0,.92-.09,1.81-.27,2.67l-6.3-6.44-5.52,6.02,7.29,7.53c-1.11,.71-2.35,1.11-3.65,1.11-4.58,0-8.45-4.98-8.45-10.88Zm-44.1,2.67c-.18-.86-.27-1.75-.27-2.67,0-5.9,3.87-10.88,8.45-10.88s8.45,4.98,8.45,10.88-3.87,10.88-8.45,10.88c-1.3,0-2.54-.4-3.65-1.11l7.29-7.53-5.52-6.02-6.3,6.44Zm24.1-9.43c0-5.32,2.44-10.06,6.26-13.18,3.82,3.12,6.26,7.86,6.26,13.18s-2.44,10.06-6.26,13.18c-3.82-3.12-6.26-7.86-6.26-13.18Z"/></g></g></svg>